<svg xmlns="http://www.w3.org/2000/svg" xmlns:xlink="http://www.w3.org/1999/xlink" width="1920" zoomAndPan="magnify" viewBox="0 0 1440 809.999993" height="1080" preserveAspectRatio="xMidYMid meet" version="1.0"><defs><g/><clipPath id="da89db820b"><path d="M 864 348 L 956 348 L 956 423.367188 L 864 423.367188 Z M 864 348 " clip-rule="nonzero"/></clipPath></defs><g fill="#38b6ff" fill-opacity="1"><g transform="translate(472.829299, 458.544885)"><g><path d="M 1.027344 0 L 20.394531 0 L 25.75 -13.785156 L 57.425781 -13.785156 L 62.78125 0 L 82.152344 0 L 50.476562 -79.757812 L 32.703125 -79.757812 Z M 30.421875 -28.03125 L 41.589844 -57.199219 L 52.867188 -28.03125 Z M 30.421875 -28.03125 "/></g></g></g><g fill="#38b6ff" fill-opacity="1"><g transform="translate(551.427846, 458.544885)"><g><path d="M 8.660156 0 L 25.980469 0 L 25.980469 -22.789062 L 35.320312 -22.789062 L 48.539062 0 L 68.707031 0 L 51.5 -28.597656 C 54.691406 -31.449219 57.199219 -35.4375 59.136719 -40.792969 L 66.085938 -59.820312 L 47.398438 -59.820312 L 43.183594 -46.828125 C 40.90625 -40.105469 37.714844 -38.285156 30.421875 -38.285156 L 25.980469 -38.285156 L 25.980469 -84.316406 L 8.660156 -84.316406 Z M 8.660156 0 "/></g></g></g><g fill="#38b6ff" fill-opacity="1"><g transform="translate(618.521172, 458.544885)"><g><path d="M 32.472656 1.59375 C 40.335938 1.59375 47.398438 -1.140625 52.183594 -6.722656 L 54.007812 0 L 66.882812 0 L 66.882812 -59.820312 L 49.566406 -59.820312 L 49.566406 -28.597656 C 49.566406 -19.140625 44.4375 -13.332031 36.574219 -13.332031 C 29.28125 -13.332031 24.839844 -18.457031 24.839844 -27.230469 L 24.839844 -59.820312 L 7.519531 -59.820312 L 7.519531 -25.523438 C 7.519531 -8.886719 16.976562 1.59375 32.472656 1.59375 Z M 32.472656 1.59375 "/></g></g></g><g fill="#38b6ff" fill-opacity="1"><g transform="translate(689.487511, 458.544885)"><g><path d="M 28.597656 1.140625 C 37.488281 1.140625 44.777344 -1.710938 49.90625 -6.949219 L 51.84375 0 L 64.71875 0 L 64.71875 -36.003906 C 64.71875 -51.84375 54.007812 -61.414062 36.121094 -61.414062 C 20.851562 -61.414062 10.824219 -54.121094 8.660156 -41.132812 L 25.296875 -41.132812 C 26.320312 -45.347656 30.648438 -48.195312 36.234375 -48.195312 C 43.070312 -48.195312 47.742188 -44.324219 47.742188 -38.398438 L 47.742188 -35.664062 L 26.09375 -35.664062 C 13.671875 -35.664062 5.695312 -28.484375 5.695312 -17.433594 C 5.695312 -5.925781 14.46875 1.140625 28.597656 1.140625 Z M 22.789062 -18.117188 C 22.789062 -22.21875 26.207031 -24.839844 31.449219 -24.839844 L 47.855469 -24.839844 C 47.511719 -16.75 41.246094 -11.28125 32.585938 -11.28125 C 26.664062 -11.28125 22.789062 -14.015625 22.789062 -18.117188 Z M 22.789062 -18.117188 "/></g></g></g><g fill="#1866cd" fill-opacity="1"><g transform="translate(775.732575, 482.345339)"><g><path d="M 18.554688 0 L 28.964844 0 L 46.917969 -46.71875 L 35.570312 -46.71875 L 23.824219 -15.28125 L 18.21875 -30.097656 L 12.011719 -46.71875 L 0.601562 -46.71875 Z M 18.554688 0 "/></g></g></g><g fill="#1866cd" fill-opacity="1"><g transform="translate(820.567088, 482.345339)"><g><path d="M 5.070312 0 L 15.214844 0 L 15.214844 -35.039062 L 5.070312 -35.039062 Z M 3.605469 -46.382812 C 3.605469 -42.644531 6.273438 -40.042969 10.144531 -40.042969 C 14.015625 -40.042969 16.683594 -42.644531 16.683594 -46.382812 C 16.683594 -50.121094 14.015625 -52.722656 10.144531 -52.722656 C 6.273438 -52.722656 3.605469 -50.121094 3.605469 -46.382812 Z M 3.605469 -46.382812 "/></g></g></g><g fill="#1866cd" fill-opacity="1"><g transform="translate(838.180119, 482.345339)"><g><path d="M 18.554688 0.933594 C 28.03125 0.933594 33.769531 -3.203125 33.769531 -9.878906 C 33.769531 -15.617188 29.5 -19.289062 20.824219 -21.023438 C 14.816406 -22.222656 12.949219 -23.226562 12.949219 -25.359375 C 12.949219 -27.429688 14.816406 -28.628906 17.820312 -28.628906 C 21.222656 -28.628906 23.292969 -27.097656 23.492188 -24.425781 L 33.167969 -24.425781 C 32.703125 -31.835938 27.230469 -35.972656 17.886719 -35.972656 C 8.476562 -35.972656 3.136719 -32.167969 3.136719 -25.359375 C 3.136719 -19.554688 7.140625 -16.085938 16.085938 -14.480469 C 21.488281 -13.546875 23.757812 -12.144531 23.757812 -9.945312 C 23.757812 -7.875 21.890625 -6.605469 18.6875 -6.605469 C 14.949219 -6.605469 12.679688 -8.410156 12.613281 -11.277344 L 2.667969 -11.277344 C 2.667969 -3.9375 8.941406 0.933594 18.554688 0.933594 Z M 18.554688 0.933594 "/></g></g></g><g fill="#1866cd" fill-opacity="1"><g transform="translate(872.005936, 482.345339)"><g><path d="M 5.070312 0 L 15.214844 0 L 15.214844 -35.039062 L 5.070312 -35.039062 Z M 3.605469 -46.382812 C 3.605469 -42.644531 6.273438 -40.042969 10.144531 -40.042969 C 14.015625 -40.042969 16.683594 -42.644531 16.683594 -46.382812 C 16.683594 -50.121094 14.015625 -52.722656 10.144531 -52.722656 C 6.273438 -52.722656 3.605469 -50.121094 3.605469 -46.382812 Z M 3.605469 -46.382812 "/></g></g></g><g fill="#1866cd" fill-opacity="1"><g transform="translate(889.618971, 482.345339)"><g><path d="M 22.289062 0.933594 C 33.902344 0.933594 41.910156 -6.605469 41.910156 -17.550781 C 41.910156 -28.429688 33.902344 -35.972656 22.289062 -35.972656 C 10.613281 -35.972656 2.601562 -28.429688 2.601562 -17.550781 C 2.601562 -6.605469 10.613281 0.933594 22.289062 0.933594 Z M 12.613281 -17.550781 C 12.613281 -23.292969 16.617188 -27.296875 22.289062 -27.296875 C 27.964844 -27.296875 31.902344 -23.292969 31.902344 -17.550781 C 31.902344 -11.8125 27.964844 -7.808594 22.289062 -7.808594 C 16.617188 -7.808594 12.613281 -11.8125 12.613281 -17.550781 Z M 12.613281 -17.550781 "/></g></g></g><g fill="#1866cd" fill-opacity="1"><g transform="translate(931.451112, 482.345339)"><g><path d="M 5.070312 0 L 15.214844 0 L 15.214844 -18.351562 C 15.214844 -23.890625 18.285156 -27.296875 22.957031 -27.296875 C 27.296875 -27.296875 29.898438 -24.226562 29.898438 -19.085938 L 29.898438 0 L 40.042969 0 L 40.042969 -20.15625 C 40.042969 -29.832031 34.503906 -35.972656 25.359375 -35.972656 C 20.6875 -35.972656 16.484375 -34.371094 13.679688 -31.101562 L 12.613281 -35.039062 L 5.070312 -35.039062 Z M 5.070312 0 "/></g></g></g><path fill="#1866cd" d="M 864.859375 422.113281 C 864.835938 422.121094 864.816406 422.128906 864.792969 422.136719 C 859.046875 410.679688 853.1875 399.050781 844.472656 389.648438 C 835.757812 380.25 823.640625 373.210938 810.828125 373.53125 C 806.332031 373.644531 801.695312 374.636719 797.417969 373.242188 C 791.898438 371.4375 788.21875 365.832031 787.441406 360.082031 C 786.605469 353.902344 788.179688 344.800781 793.53125 341.027344 C 799.378906 336.914062 806.914062 335.503906 813.921875 336.535156 C 822.085938 337.726562 829.585938 341.984375 835.675781 347.550781 C 845.566406 356.59375 852.65625 368.410156 858.128906 380.53125 C 860.894531 386.652344 863.339844 392.9375 865.070312 399.429688 C 866.007812 402.972656 866.753906 406.570312 867.246094 410.203125 C 867.386719 411.230469 868.707031 420.953125 867.960938 421.183594 C 866.933594 421.488281 865.894531 421.800781 864.859375 422.113281 Z M 864.859375 422.113281 " fill-opacity="1" fill-rule="nonzero"/><g clip-path="url(#da89db820b)"><path fill="#1866cd" d="M 867.714844 423.65625 C 867.738281 423.664062 867.753906 423.679688 867.773438 423.6875 C 875.394531 413.378906 883.144531 402.917969 893.335938 395.136719 C 903.527344 387.359375 916.664062 382.492188 929.238281 384.996094 C 933.652344 385.878906 938.050781 387.644531 942.5 386.996094 C 948.25 386.160156 952.824219 381.261719 954.570312 375.730469 C 956.449219 369.78125 956.449219 360.546875 951.820312 355.925781 C 946.765625 350.878906 939.578125 348.199219 932.496094 348.015625 C 924.25 347.796875 916.132812 350.714844 909.1875 355.15625 C 897.898438 362.378906 888.894531 372.816406 881.433594 383.828125 C 877.667969 389.386719 874.1875 395.15625 871.375 401.261719 C 869.839844 404.597656 868.496094 408.011719 867.394531 411.507812 C 867.082031 412.496094 864.121094 421.855469 864.816406 422.203125 C 865.777344 422.6875 866.746094 423.171875 867.714844 423.65625 Z M 867.714844 423.65625 " fill-opacity="1" fill-rule="nonzero"/></g><path fill="#ffffff" d="M 867.878906 403.605469 C 867.640625 403.164062 867.445312 402.671875 867.4375 402.664062 C 866.945312 401.449219 866.976562 399.660156 866.796875 398.347656 C 866.417969 395.507812 866.121094 392.652344 865.917969 389.789062 C 865.515625 384.066406 865.472656 378.316406 865.792969 372.59375 C 866.433594 360.984375 868.550781 349.453125 872.113281 338.390625 C 873.730469 333.375 875.675781 328.378906 878.835938 324.160156 C 884.519531 316.570312 893.738281 311.890625 903.175781 310.957031 C 919.117188 309.382812 933.570312 317.136719 928.925781 329.996094 C 927.898438 332.835938 925.296875 334.910156 922.441406 335.894531 C 918.578125 337.21875 914.480469 335.558594 910.527344 336.667969 C 902.566406 338.90625 895.542969 344.332031 890.160156 350.496094 C 887.03125 354.082031 883.339844 361.03125 880.941406 365.175781 C 877.070312 371.839844 875.074219 379.398438 873.113281 386.847656 C 871.621094 392.511719 870.703125 398.714844 868.585938 404.164062 C 868.453125 404.519531 868.140625 404.097656 867.878906 403.605469 Z M 867.878906 403.605469 " fill-opacity="1" fill-rule="nonzero"/><path fill="#ffffff" d="M 842.039062 344.191406 C 837.5625 340.222656 832.363281 336.480469 830.367188 330.832031 C 829.824219 329.296875 829.546875 327.601562 829.949219 326.023438 C 830.738281 322.9375 834.050781 320.96875 837.238281 320.929688 C 840.429688 320.894531 843.441406 322.429688 845.976562 324.359375 C 850.046875 327.445312 853.261719 331.652344 855.175781 336.386719 C 857.71875 342.667969 858.679688 349.484375 859.386719 356.175781 C 859.714844 359.269531 860.058594 362.371094 860.132812 365.472656 C 860.199219 368.457031 859.214844 372.191406 859.648438 375.054688 C 857.800781 362.789062 851.277344 352.367188 842.039062 344.191406 Z M 842.039062 344.191406 " fill-opacity="1" fill-rule="nonzero"/><path stroke-linecap="round" transform="matrix(0.745475, 0, 0, 0.745475, 713.230338, 208.729932)" fill-opacity="1" fill="#ffffff" fill-rule="nonzero" stroke-linejoin="round" d="M 199.930507 179.542403 C 199.128794 174.580169 198.337562 169.617935 197.541089 164.660942 C 196.891335 160.620939 196.262541 155.511987 198.169883 151.550584 C 201.240495 145.178804 207.08828 146.68791 207.748514 153.578445 C 208.419228 160.56854 205.621094 167.459076 202.681481 173.841336 Z M 199.930507 179.542403 " stroke="#335894" stroke-width="1.5" stroke-opacity="1" stroke-miterlimit="10"/><path stroke-linecap="round" transform="matrix(0.745475, 0, 0, 0.745475, 713.230338, 208.729932)" fill="none" stroke-linejoin="round" d="M 223.819444 211.92006 C 231.302094 195.691932 241.509518 184.13784 256.689657 174.711168 " stroke="#335894" stroke-width="1.5" stroke-opacity="1" stroke-miterlimit="10"/><path stroke-linecap="round" transform="matrix(0.745475, 0, 0, 0.745475, 713.230338, 208.729932)" fill="none" stroke-linejoin="round" d="M 169.502111 150.230116 C 179.332259 153.347887 187.480383 161.359772 190.771072 171.137521 " stroke="#335894" stroke-width="1.5" stroke-opacity="1" stroke-miterlimit="10"/><path stroke-linecap="round" transform="matrix(0.745475, 0, 0, 0.745475, 713.230338, 208.729932)" fill="none" stroke-linejoin="round" d="M 122.342552 222.179884 C 129.950961 221.661129 137.669409 221.650649 145.141579 223.180715 C 152.618989 224.72126 159.881561 227.880951 165.462109 233.089462 " stroke="#335894" stroke-width="1.5" stroke-opacity="1" stroke-miterlimit="10"/><path stroke-linecap="round" transform="matrix(0.745475, 0, 0, 0.745475, 713.230338, 208.729932)" fill="none" stroke-linejoin="round" d="M 310.069038 190.682539 C 312.720453 192.181165 315.21991 193.931308 317.541208 195.90153 C 320.281702 198.228068 322.802119 200.931883 324.258825 204.222572 C 326.501524 209.258165 325.998489 215.037831 325.458774 220.5293 " stroke="#335894" stroke-width="1.5" stroke-opacity="1" stroke-miterlimit="10"/><path stroke-linecap="round" transform="matrix(0.745475, 0, 0, 0.745475, 713.230338, 208.729932)" fill="none" stroke-linejoin="round" d="M 268.191349 137.517995 C 274.311612 138.880383 280.499994 141.028762 285.001112 145.388402 C 289.50223 149.748041 291.912607 156.759095 289.397431 162.502082 " stroke="#335894" stroke-width="1.5" stroke-opacity="1" stroke-miterlimit="10"/><path stroke-linecap="round" transform="matrix(0.745475, 0, 0, 0.745475, 713.230338, 208.729932)" fill="none" stroke-linejoin="round" d="M 294.658342 175.670079 C 297.928071 169.371658 305.347842 165.499334 312.379856 166.442525 C 313.438326 166.578764 314.570156 166.872201 315.251349 167.700113 C 316.320299 169.031061 315.628626 171.158481 314.260999 172.180271 C 312.888131 173.202062 311.111788 173.42738 309.408804 173.631738 C 305.311162 174.087614 301.129681 174.250052 297.157798 175.339962 Z M 294.658342 175.670079 " stroke="#335894" stroke-width="1.5" stroke-opacity="1" stroke-miterlimit="10"/></svg>